<svg xmlns="http://www.w3.org/2000/svg"  viewBox="0 0 40 40" width="70px" height="70px"><path fill="none" stroke="#788b9c" stroke-miterlimit="10" d="M20.494 28.566L16.393 25.429 20.506 20.311 20.506 13.214 13.679 20 11.07 26.786 16.393 31.911 20.494 29.117z"/><path fill="#788b9c" d="M17 32L16.014 31.585 19.237 27.845 21 29z"/><path fill="#ffeea3" d="M24,16.5c-4.136,0-7.5-3.364-7.5-7.5s3.364-7.5,7.5-7.5s7.5,3.364,7.5,7.5S28.136,16.5,24,16.5z"/><path fill="#8499ad" d="M24,2c3.86,0,7,3.14,7,7s-3.14,7-7,7s-7-3.14-7-7S20.14,2,24,2 M24,1c-4.418,0-8,3.582-8,8 s3.582,8,8,8s8-3.582,8-8S28.418,1,24,1L24,1z"/><path fill="#fff" d="M24,12.5c-1.93,0-3.5-1.57-3.5-3.5s1.57-3.5,3.5-3.5s3.5,1.57,3.5,3.5S25.93,12.5,24,12.5z"/><path fill="#f5c276" d="M24,6c1.657,0,3,1.343,3,3s-1.343,3-3,3s-3-1.343-3-3S22.343,6,24,6 M24,5c-2.206,0-4,1.794-4,4 s1.794,4,4,4s4-1.794,4-4S26.206,5,24,5L24,5z"/><path fill="#66798f" d="M16 32H17V36H16z"/><path fill="#b0c1d4" d="M8.5,38.5V37c0-0.827,0.673-1.5,1.5-1.5h13c0.827,0,1.5,0.673,1.5,1.5v1.5H8.5z"/><path fill="#8499ad" d="M23,36c0.551,0,1,0.449,1,1v1H9v-1c0-0.551,0.449-1,1-1H23 M23,35H10c-1.105,0-2,0.895-2,2v2h17v-2 C25,35.895,24.105,35,23,35L23,35z"/><path fill="#788b9c" d="M14 24L14 20 11 26 11 27 12 27 17 25 17 24z"/><path fill="#788b9c" d="M19.429 21L14 21 14 20 21 20z"/></svg>